{"extensionsUsed" : ["KHR_materials_pbrSpecularGlossiness"], "accessors" : [{"bufferView" : 0, "byteOffset" : 0, "componentType" : 5123, "count" : 36, "type" : "SCALAR", "max" : [30], "min" : [0]}, {"bufferView" : 1, "byteOffset" : 0, "componentType" : 5126, "count" : 31, "type" : "VEC3", "max" : [264.7274169921875, 192.0867919921875, 192.0867919921875], "min" : [-264.7274169921875, -192.0867919921875, -192.0867919921875], "name" : "POSITION"}, {"bufferView" : 1, "byteOffset" : 12, "componentType" : 5126, "count" : 31, "type" : "VEC3", "max" : [1.0000044107437134, 1.0000044107437134, 1.0000044107437134], "min" : [-1.0000044107437134, -1.0000044107437134, -1.0000044107437134], "name" : "NORMAL"}, {"bufferView" : 1, "byteOffset" : 24, "componentType" : 5126, "count" : 31, "type" : "VEC2", "max" : [0.9998522400856018, 0.9213055372238159], "min" : [5.2481889724731445E-05, 2.428889274597168E-06], "name" : "TEXCOORD_0"}, {"bufferView" : 1, "byteOffset" : 32, "componentType" : 5126, "count" : 31, "type" : "VEC3", "max" : [1, 1, 1], "min" : [1, 1, 1], "name" : "COLOR_0"}, {"bufferView" : 0, "byteOffset" : 72, "componentType" : 5123, "count" : 5610, "type" : "SCALAR", "max" : [4771], "min" : [0]}, {"bufferView" : 2, "byteOffset" : 0, "componentType" : 5126, "count" : 4772, "type" : "VEC3", "max" : [2.6679465770721436, 1.2042540311813354, 1.3412590026855469], "min" : [-2.629175901412964, -1.2014169692993164, -1.3412590026855469], "name" : "POSITION"}, {"bufferView" : 2, "byteOffset" : 12, "componentType" : 5126, "count" : 4772, "type" : "VEC3", "max" : [0.9999868869781494, 0.9999593496322632, 1.0000022649765015], "min" : [-0.9999868869781494, -0.9999818205833435, -1.0000022649765015], "name" : "NORMAL"}, {"bufferView" : 2, "byteOffset" : 24, "componentType" : 5126, "count" : 4772, "type" : "VEC2", "max" : [0.9998986721038818, 0.9300805926322937], "min" : [0.00018994510173797607, 0.00020691752433776855], "name" : "TEXCOORD_0"}, {"bufferView" : 2, "byteOffset" : 32, "componentType" : 5126, "count" : 4772, "type" : "VEC3", "max" : [1, 1, 1], "min" : [1, 1, 1], "name" : "COLOR_0"}, {"bufferView" : 0, "byteOffset" : 11292, "componentType" : 5123, "count" : 5610, "type" : "SCALAR", "max" : [4771], "min" : [0]}, {"bufferView" : 3, "byteOffset" : 0, "componentType" : 5126, "count" : 4772, "type" : "VEC3", "max" : [2.6679465770721436, 1.2042540311813354, 1.3412590026855469], "min" : [-2.629175901412964, -1.2014169692993164, -1.3412590026855469], "name" : "POSITION"}, {"bufferView" : 3, "byteOffset" : 12, "componentType" : 5126, "count" : 4772, "type" : "VEC3", "max" : [0.9999868869781494, 0.9999593496322632, 1.0000022649765015], "min" : [-0.9999868869781494, -0.9999818205833435, -1.0000022649765015], "name" : "NORMAL"}, {"bufferView" : 3, "byteOffset" : 24, "componentType" : 5126, "count" : 4772, "type" : "VEC2", "max" : [0.9998986721038818, 0.9300805926322937], "min" : [0.00018994510173797607, 0.00020691752433776855], "name" : "TEXCOORD_0"}, {"bufferView" : 3, "byteOffset" : 32, "componentType" : 5126, "count" : 4772, "type" : "VEC3", "max" : [1, 1, 1], "min" : [1, 1, 1], "name" : "COLOR_0"}, {"bufferView" : 0, "byteOffset" : 22512, "componentType" : 5123, "count" : 5610, "type" : "SCALAR", "max" : [4771], "min" : [0]}, {"bufferView" : 4, "byteOffset" : 0, "componentType" : 5126, "count" : 4772, "type" : "VEC3", "max" : [2.6679465770721436, 1.2042540311813354, 1.3412590026855469], "min" : [-2.629175901412964, -1.2014169692993164, -1.3412590026855469], "name" : "POSITION"}, {"bufferView" : 4, "byteOffset" : 12, "componentType" : 5126, "count" : 4772, "type" : "VEC3", "max" : [0.9999868869781494, 0.9999593496322632, 1.0000022649765015], "min" : [-0.9999868869781494, -0.9999818205833435, -1.0000022649765015], "name" : "NORMAL"}, {"bufferView" : 4, "byteOffset" : 24, "componentType" : 5126, "count" : 4772, "type" : "VEC2", "max" : [0.9998986721038818, 0.9300805926322937], "min" : [0.00018994510173797607, 0.00020691752433776855], "name" : "TEXCOORD_0"}, {"bufferView" : 4, "byteOffset" : 32, "componentType" : 5126, "count" : 4772, "type" : "VEC3", "max" : [1, 1, 1], "min" : [1, 1, 1], "name" : "COLOR_0"}], "asset" : {"generator" : "Aspose.3D 23.4.0", "version" : "2.0"}, "buffers" : [{"uri" : "data:application/octet-stream;base64,", "byteLength" : 775856}], "bufferViews" : [{"buffer" : 0, "byteOffset" : 0, "byteLength" : 33732, "target" : 34963}, {"buffer" : 0, "byteOffset" : 33736, "byteLength" : 1584, "byteStride" : 44, "target" : 34962}, {"buffer" : 0, "byteOffset" : 35324, "byteLength" : 246840, "byteStride" : 44, "target" : 34962}, {"buffer" : 0, "byteOffset" : 282168, "byteLength" : 246840, "byteStride" : 44, "target" : 34962}, {"buffer" : 0, "byteOffset" : 529012, "byteLength" : 246840, "byteStride" : 44, "target" : 34962}], "images" : [{"uri" : "data:image/png;base64,"}, {"uri" : "data:image/png;base64,"}, {"uri" : "data:image/png;base64,"}, {"uri" : "data:image/png;base64,"}, {"uri" : "data:image/png;base64,"}, {"uri" : "data:image/png;base64,"}, {"uri" : "data:image/png;base64,"}, {"uri" : "data:image/png;base64,"}, {"uri" : "data:image/png;base64,"}, {"uri" : "data:image/png;base64,"}, {"uri" : "data:image/png;base64,"}, {"uri" : "data:image/png;base64,"}, {"uri" : "data:image/png;base64,"}, {"uri" : "data:image/png;base64,"}, {"uri" : "data:image/png;base64,"}], "materials" : [{"name" : "", "extensions" : {"KHR_materials_pbrSpecularGlossiness" : {"diffuseFactor" : [1, 1, 1, 1], "diffuseTexture" : {"index" : 0, "texCoord" : 0}, "specularFactor" : [1, 1, 1], "glossinessFactor" : 1, "specularGlossinessTexture" : {"index" : 1, "texCoord" : 0, "scale" : 1}}}, "pbrMetallicRoughness" : {"baseColorFactor" : [1, 1, 1, 1], "baseColorTexture" : {"index" : 2, "texCoord" : 0}, "metallicFactor" : 1, "roughnessFactor" : 1, "metallicRoughnessTexture" : {"index" : 3, "texCoord" : 0}}, "emissiveFactor" : [0, 0, 0], "alphaMode" : "OPAQUE", "doubleSided" : true}, {"name" : "", "extensions" : {"KHR_materials_pbrSpecularGlossiness" : {"diffuseFactor" : [1, 1, 1, 1], "diffuseTexture" : {"index" : 4, "texCoord" : 0}, "specularFactor" : [1, 1, 1], "glossinessFactor" : 1, "specularGlossinessTexture" : {"index" : 5, "texCoord" : 0, "scale" : 1}}}, "pbrMetallicRoughness" : {"baseColorFactor" : [1, 1, 1, 1], "baseColorTexture" : {"index" : 6, "texCoord" : 0}, "metallicFactor" : 1, "roughnessFactor" : 1, "metallicRoughnessTexture" : {"index" : 7, "texCoord" : 0}}, "emissiveFactor" : [0, 0, 0], "alphaMode" : "OPAQUE", "doubleSided" : true}, {"name" : "", "extensions" : {"KHR_materials_pbrSpecularGlossiness" : {"diffuseFactor" : [1, 1, 1, 1], "diffuseTexture" : {"index" : 8, "texCoord" : 0}, "specularFactor" : [1, 1, 1], "glossinessFactor" : 1, "specularGlossinessTexture" : {"index" : 9, "texCoord" : 0, "scale" : 1}}}, "pbrMetallicRoughness" : {"baseColorFactor" : [1, 1, 1, 1], "baseColorTexture" : {"index" : 10, "texCoord" : 0}, "metallicFactor" : 1, "roughnessFactor" : 1, "metallicRoughnessTexture" : {"index" : 11, "texCoord" : 0}}, "emissiveFactor" : [0, 0, 0], "alphaMode" : "OPAQUE", "doubleSided" : true}, {"name" : "", "extensions" : {"KHR_materials_pbrSpecularGlossiness" : {"diffuseFactor" : [1, 1, 1, 1], "diffuseTexture" : {"index" : 12, "texCoord" : 0}, "specularFactor" : [1, 1, 1], "glossinessFactor" : 1, "specularGlossinessTexture" : {"index" : 9, "texCoord" : 0, "scale" : 1}}}, "pbrMetallicRoughness" : {"baseColorFactor" : [1, 1, 1, 1], "baseColorTexture" : {"index" : 13, "texCoord" : 0}, "metallicFactor" : 1, "roughnessFactor" : 1, "metallicRoughnessTexture" : {"index" : 14, "texCoord" : 0}}, "emissiveFactor" : [0, 0, 0], "alphaMode" : "OPAQUE", "doubleSided" : true}], "meshes" : [{"primitives" : [{"attributes" : {"POSITION" : 1, "NORMAL" : 2, "TEXCOORD_0" : 3, "COLOR_0" : 4}, "indices" : 0, "material" : 0, "mode" : 4}]}, {"primitives" : [{"attributes" : {"POSITION" : 6, "NORMAL" : 7, "TEXCOORD_0" : 8, "COLOR_0" : 9}, "indices" : 5, "material" : 1, "mode" : 4}]}, {"primitives" : [{"attributes" : {"POSITION" : 11, "NORMAL" : 12, "TEXCOORD_0" : 13, "COLOR_0" : 14}, "indices" : 10, "material" : 2, "mode" : 4}]}, {"primitives" : [{"attributes" : {"POSITION" : 16, "NORMAL" : 17, "TEXCOORD_0" : 18, "COLOR_0" : 19}, "indices" : 15, "material" : 3, "mode" : 4}]}], "nodes" : [{"matrix" : [0.0002024340564810909, -9.368016833547875E-05, -0.00033654820097345136, 0, 9.542776474625766E-12, 0.00038896950856442746, -0.00010827195868005642, 0, 0.00034934314123777875, 5.428488746847064E-05, 0.00019501971007737087, 0, 0.011180207133293152, 0.012768728658556938, 0.30677932500839233, 1], "mesh" : 0, "name" : "Node #0"}, {"matrix" : [0.02226867526769638, 0, 0, 0, 0, 0.02226867526769638, 0, 0, 0, 0, 0.02226867526769638, 0, -0.08450824022293091, 0.08415132015943527, 0.19645240902900696, 1], "mesh" : 1, "name" : "Node #1"}, {"matrix" : [0.022410690784454346, 8.348632398498462E-11, 0, 0, -8.34863309238781E-11, 0.022410692647099495, 0, 0, 0, 0, 0.022410690784454346, 0, 0.11006765812635422, 0.08646036684513092, 0.4368993937969208, 1], "mesh" : 2, "name" : "Node #2"}, {"matrix" : [0.023045978418236825, -1.2666139720350055E-10, -0.011004128454609722, 0, 0.0021264550362757855, 0.02505699726621152, 0.004453440789956563, 0, 0.010796714763659128, -0.0049350730380564355, 0.022611591367983574, 0, 0.023809228092432022, -0.11054635792970657, 0.28685009479522705, 1], "mesh" : 3, "name" : "Node #3"}, {"children" : [0, 1, 2, 3], "name" : "root"}], "samplers" : [{"magFilter" : 9728, "minFilter" : 9985, "wrapS" : 10497, "wrapT" : 10497}, {"magFilter" : 9728, "minFilter" : 9985, "wrapS" : 10497, "wrapT" : 10497}, {"magFilter" : 9728, "minFilter" : 9985, "wrapS" : 10497, "wrapT" : 10497}, {"magFilter" : 9728, "minFilter" : 9985, "wrapS" : 10497, "wrapT" : 10497}, {"magFilter" : 9728, "minFilter" : 9985, "wrapS" : 10497, "wrapT" : 10497}, {"magFilter" : 9728, "minFilter" : 9985, "wrapS" : 10497, "wrapT" : 10497}, {"magFilter" : 9728, "minFilter" : 9985, "wrapS" : 10497, "wrapT" : 10497}, {"magFilter" : 9728, "minFilter" : 9985, "wrapS" : 10497, "wrapT" : 10497}, {"magFilter" : 9728, "minFilter" : 9985, "wrapS" : 10497, "wrapT" : 10497}, {"magFilter" : 9728, "minFilter" : 9985, "wrapS" : 10497, "wrapT" : 10497}, {"magFilter" : 9728, "minFilter" : 9985, "wrapS" : 10497, "wrapT" : 10497}, {"magFilter" : 9728, "minFilter" : 9985, "wrapS" : 10497, "wrapT" : 10497}, {"magFilter" : 9728, "minFilter" : 9985, "wrapS" : 10497, "wrapT" : 10497}, {"magFilter" : 9728, "minFilter" : 9985, "wrapS" : 10497, "wrapT" : 10497}, {"magFilter" : 9728, "minFilter" : 9985, "wrapS" : 10497, "wrapT" : 10497}], "scene" : 0, "scenes" : [{"nodes" : [4]}], "textures" : [{"sampler" : 0, "source" : 0, "name" : ""}, {"sampler" : 1, "source" : 1, "name" : ""}, {"sampler" : 2, "source" : 2, "name" : ""}, {"sampler" : 3, "source" : 3, "name" : ""}, {"sampler" : 4, "source" : 4, "name" : ""}, {"sampler" : 5, "source" : 5, "name" : ""}, {"sampler" : 6, "source" : 6, "name" : ""}, {"sampler" : 7, "source" : 7, "name" : ""}, {"sampler" : 8, "source" : 8, "name" : ""}, {"sampler" : 9, "source" : 9, "name" : ""}, {"sampler" : 10, "source" : 10, "name" : ""}, {"sampler" : 11, "source" : 11, "name" : ""}, {"sampler" : 12, "source" : 12, "name" : ""}, {"sampler" : 13, "source" : 13, "name" : ""}, {"sampler" : 14, "source" : 14, "name" : ""}]}